<?xml version="1.0" standalone="no"?>
<!DOCTYPE svg PUBLIC "-//W3C//DTD SVG 20010904//EN"
 "http://www.w3.org/TR/2001/REC-SVG-20010904/DTD/svg10.dtd">
<svg version="1.0" xmlns="http://www.w3.org/2000/svg"
 width="288.000000pt" height="98.000000pt" viewBox="0 0 288.000000 98.000000"
 preserveAspectRatio="xMidYMid meet">

<g transform="translate(0.000000,98.000000) scale(0.100000,-0.100000)"
fill="#000000" stroke="none">
<path d="M718 973 c397 -2 1047 -2 1445 0 397 1 72 2 -723 2 -795 0 -1120 -1
-722 -2z"/>
<path d="M364 607 c-2 -7 -3 -71 -2 -143 l3 -129 28 -3 c27 -3 27 -2 27 52 l0
56 90 0 c93 0 100 3 84 44 -5 13 -23 16 -90 16 l-84 0 0 30 0 30 90 0 90 0 0
30 0 30 -115 0 c-86 0 -117 -3 -121 -13z"/>
<path d="M640 475 l0 -145 121 0 120 0 -3 28 c-3 27 -3 27 -91 30 -66 2 -89 6
-94 18 -11 30 16 43 95 46 71 3 77 5 80 26 3 21 1 22 -81 22 -88 0 -105 8 -91
45 5 12 25 15 96 15 l89 0 -3 28 -3 27 -117 3 -118 3 0 -146z"/>
<path d="M1410 603 c-33 -23 -40 -33 -40 -66 0 -52 15 -64 97 -82 86 -19 115
-37 95 -57 -7 -7 -35 -13 -63 -12 -39 0 -53 5 -65 22 -8 12 -26 22 -40 22 -35
0 -31 -35 7 -71 28 -26 38 -29 99 -29 63 0 71 2 99 31 32 32 38 57 21 90 -15
26 -62 49 -104 49 -51 0 -86 16 -86 40 0 18 6 20 58 20 46 0 60 -4 70 -20 13
-22 62 -28 62 -7 -1 34 -15 57 -45 71 -44 21 -134 21 -165 -1z"/>
<path d="M1654 605 c-12 -31 4 -45 50 -45 l45 0 3 -112 3 -113 30 0 30 0 3
113 3 112 48 0 c50 0 67 13 55 45 -9 22 -262 22 -270 0z"/>
<path d="M2052 608 c-6 -6 -12 -16 -12 -22 0 -5 -13 -38 -30 -73 -16 -34 -30
-67 -30 -71 0 -4 -9 -25 -20 -47 -27 -54 -26 -65 10 -65 24 0 33 6 43 28 16
38 24 42 93 42 62 0 84 -11 84 -41 0 -19 20 -29 56 -29 24 0 32 14 14 25 -5 3
-10 13 -10 21 0 14 -39 106 -83 194 -21 41 -27 45 -62 48 -23 2 -46 -3 -53
-10z m67 -85 c8 -16 17 -35 22 -44 4 -9 5 -20 2 -23 -8 -8 -68 -8 -75 0 -8 7
21 94 31 94 4 0 13 -12 20 -27z"/>
<path d="M2300 475 l0 -146 28 3 c25 3 27 7 30 56 3 50 4 52 33 52 32 0 73
-35 85 -74 9 -27 22 -36 57 -36 17 0 27 5 27 15 0 8 -4 15 -9 15 -5 0 -11 10
-15 23 -3 12 -14 32 -25 43 -14 16 -17 24 -8 33 6 6 15 11 20 11 17 0 36 34
37 62 0 15 -11 39 -24 55 -23 26 -28 28 -130 31 l-106 4 0 -147z m194 63 c8
-13 6 -22 -8 -37 -15 -16 -31 -21 -73 -21 l-53 0 0 40 0 41 61 -3 c45 -2 65
-8 73 -20z"/>
</g>
</svg>
